<svg width="39" height="37" viewBox="0 0 39 37" fill="none" xmlns="http://www.w3.org/2000/svg">
<path d="M39 4.625H6.89325L6.825 4.08388C6.68533 2.9591 6.1155 1.92205 5.22355 1.16932C4.33159 0.416594 3.17952 0.000526932 1.98575 0L0 0V3.08333H1.98575C2.38377 3.08338 2.76792 3.22202 3.06535 3.47294C3.36279 3.72386 3.55281 4.06961 3.59937 4.44463L6.175 25.2078C6.31467 26.3326 6.8845 27.3696 7.77645 28.1224C8.66841 28.8751 9.82048 29.2911 11.0142 29.2917H32.5V26.2083H11.0142C10.616 26.2082 10.2316 26.0694 9.93415 25.8182C9.63668 25.5669 9.44682 25.2208 9.40063 24.8455L9.18775 23.125H35.4835L39 4.625ZM32.7665 20.0417H8.80587L7.27675 7.70833H35.1114L32.7665 20.0417Z" fill="white"/>
<path d="M11.375 37C13.1699 37 14.625 35.6196 14.625 33.9167C14.625 32.2138 13.1699 30.8334 11.375 30.8334C9.58007 30.8334 8.125 32.2138 8.125 33.9167C8.125 35.6196 9.58007 37 11.375 37Z" fill="white"/>
<path d="M27.625 37C29.4199 37 30.875 35.6196 30.875 33.9167C30.875 32.2138 29.4199 30.8334 27.625 30.8334C25.8301 30.8334 24.375 32.2138 24.375 33.9167C24.375 35.6196 25.8301 37 27.625 37Z" fill="white"/>
</svg>
